<svg xmlns="http://www.w3.org/2000/svg" viewBox="0 0 48 48" fill="none">
  <rect width="48" height="48" rx="12" fill="#0c0e14"/>
  <path d="M24 10c-4.5 0-8 3.2-8 7.2 0 2.1 1 4 2.6 5.3-1.1 1.4-1.8 3.1-1.8 5 0 4.3 3.4 7.8 7.6 7.8h.4c4.2 0 7.6-3.5 7.6-7.8 0-1.9-.7-3.6-1.8-5 1.6-1.3 2.6-3.2 2.6-5.3C32 13.2 28.5 10 24 10z" stroke="#E88D14" stroke-width="1.75" fill="none"/>
  <circle cx="19" cy="20" r="1.6" fill="#E88D14"/>
  <circle cx="29" cy="20" r="1.6" fill="#E88D14"/>
  <path d="M18 26c1.8 2.2 4.2 3.4 6 3.4s4.2-1.2 6-3.4" stroke="#E88D14" stroke-width="1.5" stroke-linecap="round"/>
  <path d="M14 16l-3-2M34 16l3-2M12 28l-2 2M36 28l2 2" stroke="#E88D14" stroke-width="1.2" stroke-linecap="round" opacity="0.6"/>
</svg>
